<svg width="1388" height="1505" viewBox="0 0 1388 1505" fill="none" xmlns="http://www.w3.org/2000/svg">
<path d="M479.704 352.131C443.746 402.423 395.059 430.729 333.643 437.048C272.227 443.368 227.214 418.222 198.606 361.61C169.997 304.999 171.178 250.494 202.149 198.095C233.12 145.697 277.213 122.262 334.43 127.792C391.647 133.321 439.153 159.52 476.948 206.389C514.743 253.258 515.661 301.839 479.704 352.131Z" fill="#FF9B9B"/>
<path d="M1361.46 895.558C1325.18 960.242 1276.04 996.648 1214.07 1004.78C1152.09 1012.9 1106.66 980.561 1077.79 907.749C1048.92 834.937 1050.12 764.834 1081.37 697.441C1112.62 630.047 1157.12 599.906 1214.86 607.018C1272.6 614.13 1320.54 647.827 1358.68 708.109C1396.82 768.39 1397.75 830.873 1361.46 895.558Z" fill="#FFC681"/>
<path d="M604.417 1263.27C563.965 1311.14 509.192 1338.08 440.098 1344.09C371.005 1350.11 320.366 1326.18 288.181 1272.29C255.997 1218.41 257.326 1166.54 292.168 1116.67C327.01 1066.79 376.615 1044.49 440.984 1049.75C505.353 1055.02 558.797 1079.95 601.316 1124.56C643.835 1169.17 644.869 1215.41 604.417 1263.27Z" fill="#B2A4FF"/>
<path d="M1087.36 1116.36C1124.05 1175.7 1133.68 1243.05 1116.25 1318.39C1098.81 1393.73 1056.05 1439.22 987.98 1454.84C919.906 1470.47 865.495 1451.24 824.748 1397.15C784.001 1343.07 777.496 1282.8 805.234 1216.34C832.971 1149.88 877.753 1101.77 939.579 1072C1001.41 1042.23 1050.67 1057.02 1087.36 1116.36Z" fill="#C0DEFF"/>
<path d="M1202.45 277.251C1157.94 339.186 1097.68 374.045 1021.66 381.828C945.634 389.61 889.918 358.643 854.506 288.925C819.094 219.207 820.556 152.084 858.892 87.5546C897.227 23.0252 951.807 -5.83461 1022.63 0.975015C1093.45 7.78464 1152.26 40.0493 1199.04 97.769C1245.82 155.489 1246.96 215.316 1202.45 277.251Z" fill="#A6D0DD"/>
<path d="M318.879 904.137C291.052 952.185 239.176 993.88 163.249 1029.22C87.3225 1064.56 37.0361 1040.54 12.3898 957.149C-12.2565 873.76 -0.132147 811.615 48.763 770.715C97.6581 729.815 156.491 691.098 225.262 654.566C294.034 618.034 333.786 638.484 344.519 715.916C355.252 793.349 346.705 856.089 318.879 904.137Z" fill="#98DDCA"/>
</svg>
